<svg width="20" height="20" viewBox="0 0 16 16" version="1.1" xmlns="http://www.w3.org/2000/svg" xmlns:xlink="http://www.w3.org/1999/xlink"><g class="transform-group"><g transform="scale(0.015625, 0.015625)"><path d="M506.834862 511.894599c-6.79373-25.808806-73.468269-97.17725-99.17679-180.01491l-79.181387 0.718361 107.015316 179.296549-84.894506 2.50403 0 71.718415 120.56696-2.50403-0.731664 54.139038L364.878756 637.752052l-14.283308 62.054311 124.502595-0.367367 1.393743 73.871451 71.343885 0-1.393743-73.871451 107.015316 0 1.393743-59.164494-113.077382-2.521426 0.731664-54.139038 113.077382 1.435699 0-71.718415-77.405951-1.435699L685.194062 332.598051l-71.343885 0L506.834862 511.894599zM952.733375 511.894599c0-242.050802-214.031655-448.241884-445.898513-448.241884-240.784972 0-445.898513 206.191082-445.898513 448.241884 0 135.908366 69.566402 265.355577 175.154205 349.978906l-32.467459 98.261954 88.831164-59.531861c64.202231 37.662785 137.322575 59.531861 214.379579 59.531861 74.93262 0 148.017148-22.586414 212.603119-60.96756l90.607624 60.96756-33.546024-100.767008C881.38949 774.746146 952.733375 646.367267 952.733375 511.894599zM254.658446 282.030351c61.311391-68.479651 150.874219-110.799502 252.176416-110.799502 181.947935 0 338.883197 149.530618 338.883197 340.66375 0 182.886307-156.935262 340.66375-338.883197 340.66375-190.133362 0-338.883197-157.778466-338.883197-340.66375C167.951665 422.595784 200.419124 342.280574 254.658446 282.030351zM934.897148 225.019916c65.630766-34.073026-1.77646-226.624461-142.68777-143.43683C792.209378 81.582063 856.063685 150.429081 934.897148 225.019916zM104.098381 225.019916c78.833463-74.590835 142.68777-143.43683 142.68777-143.43683C105.526917-1.604544 38.467615 190.945867 104.098381 225.019916z" fill="#04BE02"></path></g></g></svg>