<svg width="20" height="20" viewBox="0 0 20 20" version="1.1" xmlns="http://www.w3.org/2000/svg" xmlns:xlink="http://www.w3.org/1999/xlink"><g class="transform-group"><g transform="scale(0.015625, 0.015625)"><path d="M933.095619 0 933.095619 0 90.325193 0M511.753385 1018.118036c-136.705522 0-265.234827-52.882418-361.882004-148.870586-96.66048-96.094592-149.873426-223.796042-149.84989-359.671663 0-135.860271 53.245691-263.582187 149.927661-359.644033 96.643084-96.016821 225.172389-148.909471 361.89326-148.909471 136.76692 0 265.278829 52.887534 361.961822 148.909471 199.558012 198.339254 199.536522 520.965186 0 719.226668C777.099752 965.197756 648.514165 1018.118036 511.753385 1018.118036L511.753385 1018.118036 511.753385 1018.118036 511.753385 1018.118036 511.753385 1018.118036 511.753385 1018.118036zM511.847529 67.301825c-118.925576 0-230.671637 45.983287-314.758754 129.497353-84.073814 83.491553-130.374326 194.607256-130.374326 312.777633-0.022513 118.187773 46.25651 229.27994 130.302695 312.810379 84.057441 83.482343 195.848527 129.509632 314.735218 129.509632 118.942973 0 230.785224-46.067198 314.88155-129.603777 173.532265-172.413791 173.532265-453.019701 0-625.492844C742.560098 113.284089 630.769013 67.301825 511.847529 67.301825L511.847529 67.301825 511.847529 67.301825 511.847529 67.301825 511.847529 67.301825 511.847529 67.301825zM711.228509 550.220487 494.679521 550.220487 494.679521 333.671499c0-23.940249-19.373233-43.313481-43.312458-43.313481-23.940249 0-43.308365 19.374256-43.308365 43.313481l0 259.860423c0 23.934109 19.368116 43.308365 43.308365 43.308365l259.860423 0c23.940249 0 43.313481-19.374256 43.313481-43.308365C754.54199 569.592696 735.161594 550.220487 711.228509 550.220487L711.228509 550.220487 711.228509 550.220487zM711.228509 550.220487" fill="#FFA700"></path></g></g></svg>