<svg width="20" height="20" viewBox="0 0 16 16" version="1.1" xmlns="http://www.w3.org/2000/svg" xmlns:xlink="http://www.w3.org/1999/xlink"><g class="transform-group"><g transform="scale(0.015625, 0.015625)"><path d="M497.776172 793.002983 195.408283 480.717299l77.507584-63.082167 174.839501 139.236952C519.40867 470.355394 678.475072 298.670717 897.926229 162.132199l18.471534 43.258857C714.973006 393.29806 550.046182 657.8101 497.776172 793.002983L497.776172 793.002983 497.776172 793.002983zM879.554978 452.017912c3.239758 19.789541 4.953781 40.085613 4.953781 60.789981 0 206.064386-167.041978 373.107387-373.108411 373.107387-206.060293 0-373.108411-167.041978-373.108411-373.107387 0-206.060293 167.048118-373.108411 373.108411-373.108411 49.748607 0 97.214238 9.76123 140.612263 27.431523L652.012611 92.499909c-45.16219-15.126376-92.316738-22.783708-140.612263-22.783708-59.788174 0-117.822416 11.724937-172.490011 34.850426-52.775519 22.322201-100.153147 54.261346-140.824086 94.927169-40.665823 40.669916-72.604968 88.047543-94.927169 140.823063-23.124465 54.667595-34.850426 112.703884-34.850426 172.491035 0 59.78715 11.724937 117.822416 34.850426 172.490011 22.322201 52.775519 54.261346 100.153147 94.927169 140.824086 40.670939 40.670939 88.048567 72.610085 140.824086 94.927169 54.667595 23.128559 112.701838 34.850426 172.490011 34.850426s117.822416-11.720844 172.496151-34.850426c52.770403-22.317084 100.147007-54.25623 140.818969-94.927169 40.670939-40.670939 72.610085-88.048567 94.927169-140.818969 23.128559-54.673735 34.850426-112.709001 34.850426-172.496151 0-20.486406-1.375311-40.772245-4.11877-60.789981L879.554978 452.016888 879.554978 452.017912zM879.554978 452.017912" fill="#04BE02"></path></g></g></svg>