<svg width="16" height="16" viewBox="0 0 16 16" version="1.1" xmlns="http://www.w3.org/2000/svg" xmlns:xlink="http://www.w3.org/1999/xlink"><g class="transform-group"><g transform="scale(0.015625, 0.015625)"><path d="M948.096 744.768 75.84 744.768C33.92 744.768 0 710.016 0 667.136l0-193.984c0-42.88 33.92-77.568 75.84-77.568l37.952 0c0 0 56.064-174.592 72.704-232.768 16.576-58.176 33.984-77.568 75.84-77.568l499.392 0c41.856 0 54.464 12.096 75.776 77.568 21.376 65.472 72.704 232.768 72.704 232.768l37.888 0C990.016 395.584 1024 430.336 1024 473.216l0 193.984C1024 710.016 990.016 744.768 948.096 744.768zM265.472 667.136l493.056 0L758.528 628.352l-493.056 0L265.472 667.136zM758.528 395.584c0-42.816-33.984-82.432-75.904-82.432S606.784 352.768 606.784 395.584C606.784 396.608 758.528 396.608 758.528 395.584zM265.472 589.568l493.056 0L758.528 550.784 265.472 550.784 265.472 589.568zM265.472 512l493.056 0L758.528 473.216 265.472 473.216 265.472 512zM78.208 550.784c0 42.88 33.984 77.568 75.84 77.568 41.92 0 75.84-34.752 75.84-77.568 0-42.88-33.984-77.568-75.84-77.568C112.192 473.216 78.208 507.904 78.208 550.784zM799.616 162.88c-9.472-26.688-17.024-38.784-37.888-38.784L530.944 124.096l0 38.784 18.944 0c10.432 0 18.944 8.704 18.944 19.392 0 10.688-8.512 19.392-18.944 19.392L474.048 201.664c-10.432 0-18.944-8.704-18.944-19.392 0-10.752 8.512-19.392 18.944-19.392l18.944 0 0-38.784L262.336 124.096c-20.928 0-28.416 4.864-37.888 38.784C214.912 196.8 151.68 395.584 151.68 395.584l434.624 0C587.264 342.72 629.184 293.12 680.96 293.12c51.776 0 93.696 49.6 94.592 102.528l96.704 0C872.32 395.584 809.088 189.504 799.616 162.88zM869.888 475.584c-41.92 0-75.84 34.752-75.84 77.568 0 42.88 33.92 77.568 75.84 77.568 41.92 0 75.904-34.752 75.904-77.568C945.792 510.336 911.808 475.584 869.888 475.584zM189.632 880.512c0 32.128-25.472 58.24-56.896 58.24-31.424 0-56.896-26.048-56.896-58.24l0-96.96 113.792 0L189.632 880.512zM948.096 880.512c0 32.128-25.472 58.24-56.896 58.24-31.424 0-56.896-26.048-56.896-58.24l0-96.96 113.792 0L948.096 880.512 948.096 880.512z" fill="#33475f"></path></g></g></svg>