<?xml version="1.0" standalone="no"?><!DOCTYPE svg PUBLIC "-//W3C//DTD SVG 1.1//EN" "http://www.w3.org/Graphics/SVG/1.1/DTD/svg11.dtd"><svg width="16" height="16" viewBox="0 0 16 16" version="1.1" xmlns="http://www.w3.org/2000/svg" xmlns:xlink="http://www.w3.org/1999/xlink"><defs><style type="text/css"><![CDATA[
@font-face { font-family: ifont; src: url(http://at.alicdn.com/t/font_1442373896_4754455.eot?#iefix) format(embedded-opentype), url(http://at.alicdn.com/t/font_1442373896_4754455.woff) format(woff), url(http://at.alicdn.com/t/font_1442373896_4754455.ttf) format(truetype), url(http://at.alicdn.com/t/font_1442373896_4754455.svg#ifont) format(svg); }

]]></style></defs><g class="transform-group"><g transform="scale(0.015625, 0.015625)"><path d="M431.104 161.9968c-111.2064 0-161.5872 66.3552-161.5872 161.5872l53.8624 0c1.8432-67.584 45.8752-105.8816 107.7248-107.7248 54.4768 1.6384 78.4384 31.3344 80.2816 81.5104 0 26.0096-18.6368 56.32-56.32 90.9312-43.2128 38.0928-50.9952 65.7408-50.9952 96.8704l0 53.8624 53.8624 0 0-53.8624c0-17.2032 9.216-40.5504 39.3216-68.1984 45.056-39.936 67.584-79.6672 67.584-119.3984C564.8384 217.7024 517.5296 161.9968 431.104 161.9968L431.104 161.9968zM404.2752 646.5536l53.8624 0 0-53.8624-53.8624 0L404.2752 646.5536 404.2752 646.5536zM862.0032 474.7264 862.0032 101.7856c0 0-10.0352-74.5472-80.6912-74.5472L27.2384 27.2384l0 770.4576c0 0 10.0352 62.6688 107.7248 64.1024 97.4848 1.4336 296.1408 0 296.1408 0C419.4304 863.6416 862.0032 474.7264 862.0032 474.7264L862.0032 474.7264zM404.2752 808.1408c0 0-249.0368-0.8192-269.312 0-62.2592 2.4576-53.8624-60.0064-53.8624-60.0064L81.1008 77.0048l700.0064 0c35.2256 0 26.8288 29.4912 26.8288 49.7664l0 323.1744L404.2752 808.1408 404.2752 808.1408zM979.968 626.0736 886.3744 538.624l-16.5888-15.36-16.384 15.36-70.2464 65.536L525.7216 844.1856l-5.12 4.7104-1.4336 6.5536-34.2016 141.312 155.4432-28.2624 6.9632-1.2288 5.12-4.7104 257.4336-240.0256 70.2464-65.536 16.5888-15.36L979.968 626.0736 979.968 626.0736zM624.2304 926.9248l-75.5712 14.1312 15.1552-70.4512 235.9296-219.9552 60.6208 56.5248L624.2304 926.9248 624.2304 926.9248zM893.3376 676.0448l-60.6208-56.5248 37.0688-34.6112 60.6208 56.5248L893.3376 676.0448 893.3376 676.0448zM893.3376 676.0448" fill="#2E95FF"></path></g></g></svg>