<?xml version="1.0" standalone="no"?><!DOCTYPE svg PUBLIC "-//W3C//DTD SVG 1.1//EN" "http://www.w3.org/Graphics/SVG/1.1/DTD/svg11.dtd"><svg width="16" height="16" viewBox="0 0 16 16" version="1.1" xmlns="http://www.w3.org/2000/svg" xmlns:xlink="http://www.w3.org/1999/xlink"><defs><style type="text/css"><![CDATA[
@font-face { font-family: ifont; src: url(http://at.alicdn.com/t/font_1442373896_4754455.eot?#iefix) format(embedded-opentype), url(http://at.alicdn.com/t/font_1442373896_4754455.woff) format(woff), url(http://at.alicdn.com/t/font_1442373896_4754455.ttf) format(truetype), url(http://at.alicdn.com/t/font_1442373896_4754455.svg#ifont) format(svg); }

]]></style></defs><g class="transform-group"><g transform="scale(0.015625, 0.015625)"><path d="M244.804007 398.526599c0-147.579173 119.616308-267.195481 267.195481-267.195481 147.579173 0 267.195481 119.616308 267.195481 267.195481 0 147.557684-119.617331 267.196505-267.195481 267.196505C364.419292 665.723104 244.804007 546.084283 244.804007 398.526599zM739.555158 642.890073 872.065124 775.444041l-69.886697 14.764262-21.635763 82.652442L621.78694 714.038506C666.015258 698.642864 705.981505 674.180729 739.555158 642.890073zM402.211013 714.038506l-158.755724 158.822239-21.635763-82.652442-69.886697-14.764262 132.51099-132.553968C317.994959 674.15924 357.983719 698.642864 402.211013 714.038506zM253.935991 610.492198 62.389444 802.016233l117.115348 38.380122 40.33566 119.070886 232.252645-232.296647c19.439748 3.523243 39.46585 5.350868 59.906391 5.350868 20.439518 0 40.466644-1.826602 59.905368-5.350868l232.252645 232.296647 40.336684-119.070886 117.115348-38.380122L770.061962 610.492198c47.425126-57.667398 75.931367-131.468241 75.931367-211.965599 0-184.458105-149.536758-333.994863-333.994863-333.994863-184.458105 0-333.994863 149.536758-333.994863 333.994863C178.004625 479.023958 206.511889 552.825824 253.935991 610.492198z" fill="#fff"></path></g></g></svg>