<?xml version="1.0" standalone="no"?><!DOCTYPE svg PUBLIC "-//W3C//DTD SVG 1.1//EN" "http://www.w3.org/Graphics/SVG/1.1/DTD/svg11.dtd"><svg width="16" height="16" viewBox="0 0 16 16" version="1.1" xmlns="http://www.w3.org/2000/svg" xmlns:xlink="http://www.w3.org/1999/xlink"><defs><style type="text/css"><![CDATA[
@font-face { font-family: ifont; src: url(http://at.alicdn.com/t/font_1442373896_4754455.eot?#iefix) format(embedded-opentype), url(http://at.alicdn.com/t/font_1442373896_4754455.woff) format(woff), url(http://at.alicdn.com/t/font_1442373896_4754455.ttf) format(truetype), url(http://at.alicdn.com/t/font_1442373896_4754455.svg#ifont) format(svg); }

]]></style></defs><g class="transform-group"><g transform="scale(0.015625, 0.015625)"><path d="M974.04878 512C974.04878 256.817504 767.182496 49.95122 512 49.95122 256.817504 49.95122 49.95122 256.817504 49.95122 512 49.95122 767.182496 256.817504 974.04878 512 974.04878 767.182496 974.04878 974.04878 767.182496 974.04878 512ZM0 512C0 229.230208 229.230208 0 512 0 794.769793 0 1024 229.230208 1024 512 1024 794.769793 794.769793 1024 512 1024 229.230208 1024 0 794.769793 0 512ZM159.288894 512.000275a3.1889 3.1889 0 1 0 159.289444 0 3.1889 3.1889 0 1 0-159.289444 0ZM432.354729 512.000275a3.1889 3.1889 0 1 0 159.289444 0 3.1889 3.1889 0 1 0-159.289444 0ZM705.42306 512.000275a3.1889 3.1889 0 1 0 159.289444 0 3.1889 3.1889 0 1 0-159.289444 0Z" fill="#00bb9c"></path></g></g></svg>