<?xml version="1.0" standalone="no"?><!DOCTYPE svg PUBLIC "-//W3C//DTD SVG 1.1//EN" "http://www.w3.org/Graphics/SVG/1.1/DTD/svg11.dtd"><svg width="32" height="32" viewBox="0 0 32 32" version="1.1" xmlns="http://www.w3.org/2000/svg" xmlns:xlink="http://www.w3.org/1999/xlink"><defs><style type="text/css"><![CDATA[
@font-face { font-family: ifont; src: url(http://at.alicdn.com/t/font_1442373896_4754455.eot?#iefix) format(embedded-opentype), url(http://at.alicdn.com/t/font_1442373896_4754455.woff) format(woff), url(http://at.alicdn.com/t/font_1442373896_4754455.ttf) format(truetype), url(http://at.alicdn.com/t/font_1442373896_4754455.svg#ifont) format(svg); }

]]></style></defs><g class="transform-group"><g transform="scale(0.03125, 0.03125)"><path d="M20 120l0 748.226 987.478 0L1007.478 120 20 120 20 120zM953.376 814.126 74.098 814.126 74.098 174.098l879.278 0L953.376 814.126zM124.39 285.188l778.698 0 0 54.1L124.39 339.288 124.39 285.188 124.39 285.188zM135.04 718.834l124.21 0 0-124.21L135.04 594.624 135.04 718.834zM189.14 648.722l15.942 0 0 15.946L189.14 664.668 189.14 648.722zM840.596 463.218l-54.1 0 0 53.748-74.624 0 0-53.748L657.7 463.218l0 53.748-46.974 0 0 54.102 116.382 0 0 64.042-116.382 0 0 54.168 116.382 0 0 101.076 54.1 0 0-101.076 106.436 0 0-54.168-106.436 0 0-64.042 106.436 0 0-54.102-47.046 0L840.598 463.218z" fill="#9d55b8"></path></g></g></svg>